<svg xmlns="http://www.w3.org/2000/svg" width="32" height="27" fill="none" viewBox="0 0 32 27">
  <path fill="#0D0D0D" d="M10.705.3c3.818-.465 7.671-.301 11.5-.096.506-.016 1.01-.115 1.517-.058.434.053.822.285 1.17.544.7.534 1.287 1.21 1.786 1.942.59.878.72 1.992 1.314 2.869.786 1.128 2.04 1.805 2.786 2.967.504.753.59 1.72.494 2.607-.083.797-.488 1.518-1.01 2.096-.698.765-1.5 1.452-2.02 2.367-.344.602-.476 1.303-.813 1.907-.801 1.236-1.971 2.16-3.193 2.921-1.766 1.095-3.689 1.878-5.533 2.814-.867.433-1.7.938-2.587 1.325-.82.367-1.716.463-2.587.626-.758.119-1.497.33-2.245.5-1.833.41-3.72.729-5.6.523-1.284-.142-2.59-.62-3.491-1.608-.35-.407-.677-.86-.86-1.373-.107-1.561.1-3.119.297-4.663.187-1.486.299-3.012-.013-4.489C1.315 12.851.6 11.855.238 10.708-.044 9.839-.107 8.86.224 7.997c.538-1.018 1.605-1.61 2.097-2.661.28-.56.336-1.2.316-1.819.88-.906 1.98-1.554 3.13-2.02C7.347.856 9.025.516 10.705.3Z"/>
  <path fill="#FCFCFC" d="M8.881 1.704c3.877-.557 7.805-.796 11.72-.657.923.06 1.852.002 2.773.114.778.103 1.481.543 1.986 1.127 1.197 1.378 1.567 3.266 2.79 4.626-.525.055-1.05-.093-1.573-.023-.157.014-.295.093-.421.181.796-.099 1.628-.07 2.373.25 1.018.414 1.852 1.283 2.162 2.335.239.82.11 1.726-.318 2.463-.501.869-1.32 1.527-2.23 1.942.041.02.084.038.128.058.165-.061.312-.158.458-.253l.082.168c-.234.152-.49.284-.664.51-.409.493-.537 1.135-.768 1.715-.247.674-.72 1.234-1.223 1.737-1.211 1.159-2.703 1.97-4.194 2.717-1.067.516-2.15.996-3.222 1.502-.939.433-1.814.985-2.756 1.412-.209.085-.416.188-.644.21-.321.004-.64-.088-.961-.051-.564.06-1.088.286-1.62.466-1.1.413-2.263.616-3.422.782-1.305.172-2.631.25-3.94.083-1.07-.143-2.188-.449-2.974-1.224-.419-.441-.766-1.024-.71-1.65-.014-2.518.667-5 .458-7.521-.088-.77-.214-1.567-.627-2.24-.325-.567-.79-1.072-.947-1.719C.447 9.995.434 9.16.79 8.441 1.234 7.51 2.252 7 2.673 6.051c.228-.491.247-1.043.215-1.573C3.993 3.202 5.537 2.27 7.214 1.965c1.144-.22 2.303.019 3.451.075 2.308.148 4.557-.636 6.864-.527 1.061.07 2.097.373 3.057.82 1.06.493 2.015 1.169 3.003 1.783.316.186.626.39.971.524-1.037-.81-2.103-1.602-3.268-2.227-1.224-.65-2.591-1.05-3.983-1.09-2.306-.073-4.563.588-6.869.548-.522-.017-1.05-.046-1.559-.167Z"/>
  <path fill="#0D0D0D" d="M14.596 2.14c1.852-.241 3.782-.146 5.553.447a8.653 8.653 0 0 1 2.936 1.65c.273.253.562.498.768.805-1.45-1.219-3.178-2.194-5.096-2.595-1.163-.254-2.37-.3-3.557-.2-.926.093-1.806.437-2.741.47-1.718.106-3.436-.07-5.14-.265-.167-.016-.334-.046-.502-.04-.295.14-.52.392-.854.461.222-.348.62-.576 1.047-.623.851-.094 1.677.175 2.515.26 1.701.141 3.394-.137 5.071-.37Z"/>
  <path fill="#0D0D0D" d="M15.905 3.102c1.624-.187 3.32-.056 4.832.665.701.352 1.425.91 1.625 1.78-.506-.994-1.47-1.565-2.428-1.881-1.465-.475-3.015-.542-4.53-.459.162-.061.33-.091.5-.105Zm-8.67.737c1.126-.376 2.352-.393 3.506-.14.212.048.448.05.632.18.123.068.011.205-.014.296a6.112 6.112 0 0 0-3.26-.386c-.661.122-1.338.405-1.755.967-.181.234-.268.52-.38.79.021-.419.173-.813.356-1.182.24-.268.586-.405.915-.525Zm8.311-.252c.113-.125.241-.016.356.042-.377.24-.658.64-.803 1.097-.02.273.016.554-.06.82-.168-.341-.137-.75-.109-1.123.239-.247.367-.6.616-.836Zm-5.111 1.025c.072-.026.143-.05.216-.074.075.2.162.394.282.557-.005.487.005.973-.005 1.46-.3-.35-.017-.906-.123-1.34-.114-.21-.282-.367-.37-.603Zm6.864.57c1.184-.233 2.457-.208 3.574.327.713.336 1.327.999 1.488 1.847-.19.164-.41.31-.66.317-.572.028-1.102-.274-1.668-.316-1.568-.138-3.117.4-4.479 1.214-.347-.385-.934-.521-1.106-1.074-.132-.346.112-.66.295-.917.65-.802 1.618-1.186 2.556-1.398Z"/>
  <path fill="#FCFCFC" d="M15.913 6.705c.551-.32 1.186-.47 1.796-.655-.077.31.134.573.18.868a1.997 1.997 0 0 0-1.195.266c-.386.208-.82.5-1.284.326-.045-.349.205-.638.503-.805Z"/>
  <path fill="#0D0D0D" d="M7.133 6.157c.884-.225 1.82-.069 2.667.237.572.225 1.169.518 1.51 1.068.357-.107.762-.268 1.113-.05-.007.145-.002.317-.12.42-.28.287-.748.249-1 .582 0 .52.003 1.042-.002 1.564-.436.502-1.26.6-1.467 1.312.349.625.78 1.299 1.478 1.537.281.022.462-.245.7-.353.086.053.173.107.259.162-.137.348-.304.723-.633.917-.215.122-.47.042-.664-.083-.681-.44-1.077-1.214-1.75-1.664-.136.153-.288.362-.512.34-.113-.153-.158-.345-.24-.517-.632.163-1.148.812-1.843.694 1.532-.633 2.732-1.832 4.026-2.849V8.273c-.607-.376-1.33-.45-2.02-.52-.897-.093-1.829-.095-2.672-.467.124-.584.626-.997 1.17-1.129Z"/>
  <path fill="#FCFCFC" d="M20.871 6.574c.157-.05.332-.012.452.194.053.067.045.19.045.29-.113-.177-.261-.17-.401-.206-.078-.013-.08-.173-.096-.278Zm-13.914.091c.35.043.696-.107 1.046-.11.169-.012.325.149.445.403-.293-.019-.583.028-.874.088-.217.037-.466.018-.617-.38Z"/>
  <path fill="#0D0D0D" d="M22.859 6.565c.513-.091.972.44 1.49.271-.085.764-.825.934-1.178.471.235-.054.55.106.7-.254-.356-.041-.742-.099-1.012-.488Zm-19.622.623c.483.082.965-.033 1.44-.112.282-.054.59.015.79.244-.86-.12-1.756-.105-2.573.238-.682.271-1.304.819-1.558 1.565-.232.658-.163 1.392.036 2.05.046.137.078.299.197.388.41.331.97.333 1.377.662.124.087.09.247.086.382-.187-.13-.363-.28-.57-.368-.393-.183-.846-.271-1.16-.606a3.816 3.816 0 0 1-.221-2.302c.22-.99.95-1.805 1.832-2.158.105-.041.217.01.324.017Zm22.603-.043c.378-.118.781-.076 1.172-.086.73-.006 1.51.158 2.062.651.497.457.69 1.134.73 1.778.035.367-.017.734-.028 1.1l-.123-.133a8.287 8.287 0 0 0-.017-1.716c-.24-.567-.683-1.085-1.286-1.31-.799-.309-1.674-.194-2.51-.284Zm-2.981.483c.194-.2.407.098.497.439-.193.013-.364-.18-.497-.44Z"/>
  <path fill="#0D0D0D" d="M24.841 7.645c.951-.202 1.995-.036 2.794.559.726.528 1.231 1.425 1.184 2.364-.014.802-.449 1.531-1.023 2.037-.227-.52.074-1.035.24-1.516.213-.548.095-1.172-.16-1.68a2.014 2.014 0 0 0-1.258-1.028c-.47-.152-.966-.132-1.45-.101-.492.498-1.149.763-1.8.946a6.394 6.394 0 0 1-2.622.156c-.586-.106-1.207-.326-1.582-.838-.203-.265-.269-.609-.28-.94.76.116 1.204.888 1.919 1.123.65.215 1.37.142 1.996-.123.693-.292 1.297-.807 2.042-.96ZM2.112 8.735c.391-.332.888-.5 1.366-.668-.246.514-1.004.445-1.208.993-.163.493.037 1.033-.144 1.528l-.138-.196c.008-.555.096-1.104.124-1.657Z"/>
  <path fill="#0D0D0D" d="M3.142 8.729c.63-.264 1.36-.152 2.005.014.588.162 1.162.398 1.618.768.257-.122.475-.306.749-.403.16-.042.308.021.437.097-.017.277-.131.575-.435.704-.606.255-1.3.148-1.949.174-.023-.338-.214-.712-.622-.803-.83-.181-1.638.179-2.46.228.088-.323.298-.638.657-.78Z"/>
  <path fill="#0D0D0D" d="M24.978 9.205c.091-.122.255-.11.39-.13.015.337.058.694.27.97.435.59 1.256.72 1.693 1.309-.354.322-.833.07-1.243.045-.22-.038-.281.223-.372.367a.789.789 0 0 0-.049.732c.088.148-.115.212-.186.307-.756.758-1.265 1.71-1.9 2.56-.5.69-1.081 1.327-1.761 1.847a14.89 14.89 0 0 1-3.838 2.132c-1.299.49-2.693.632-4.068.741a34.766 34.766 0 0 1-4.764.002c-1.107-.09-2.221-.215-3.284-.544-.433-.142-.884-.31-1.191-.658-.458-.508-.704-1.161-.88-1.81-.352-1.4-.398-2.87-.198-4.297.093-.674.427-1.277.746-1.867.155-.246.073-.551.168-.813.057-.151.245-.066.364-.078.285.602.114 1.294.321 1.912 1.11 1.094 2.663 1.626 4.19 1.816 2.208.257 4.436-.08 6.58-.596 3.08-.764 6.042-1.932 8.913-3.262.006-.228-.04-.485.1-.685Z"/>
  <path fill="#0D0D0D" d="M14.908 10.649c.019-.424.43-.605.757-.558.413.054.863.176 1.163.521.096.269.063.576.058.86-.04.415-.164.914-.537 1.092-.177.097-.367-.002-.54-.058 0-.13-.024-.268.03-.389.101-.247.376-.342.454-.606.062-.183.006-.376-.024-.56-.439-.19-.933-.075-1.361-.302Zm2.039-.073c-.06-.167-.11-.415.106-.492l.226.062-.228.164a.46.46 0 0 0 .371.41c.742.178 1.514-.06 2.259.071.163.015.215.16.19.301-.688-.37-1.49-.075-2.227-.143-.266-.017-.602-.096-.697-.373Zm-14.959.012.137.047c.183.202.584.297.856.457-.24-.015-.498-.04-.681-.132a.565.565 0 0 1-.312-.372Z"/>
  <path fill="#FCFCFC" d="M22.421 11.864c1.01-.342 1.817-1.229 2.922-1.276.017.61-.26 1.204-.712 1.599-.628.56-1.457.807-2.269.922.199-.393-.003-.83.06-1.245Z"/>
  <path fill="#0D0D0D" d="m29.667 10.588.148.17a14.029 14.029 0 0 1-.363 1.594c-.534.27-1.032.627-1.653.741-.159.042-.316-.007-.468-.044.596-.083 1.202-.28 1.596-.688.48-.494.688-1.142.74-1.773Zm-16.152.6c.618-.171 1.278-.096 1.883.097.02.281 0 .57-.149.816-.665-.609-1.584.054-2.329-.305.038-.315.307-.535.595-.608Z"/>
  <path fill="#FCFCFC" d="M17.393 13.214c1.5-.342 2.958-.82 4.472-1.113a1.708 1.708 0 0 1-.886 1.464c-.987.557-2.2.616-3.245 1.057-.132-.466-.2-.944-.341-1.408ZM4.474 14.397c.012-.66.43-1.261.877-1.792.271.835.012 1.709-.26 2.521-.352-.129-.64-.397-.617-.73Zm18.668-.42c.37-.21.785-.333 1.208-.364-.714.582-.885 1.702-1.83 2.017-.108-.239-.199-.502-.138-.767.087-.4.417-.692.76-.886ZM6.15 15.424c-.082-.585-.448-1.35.146-1.81.312.284.731.424 1.153.517.046.362-.245.647-.361.973-.068.183.034.362.113.526-.34-.107-.678-.283-1.05-.206Zm8.058-1.211c.951-.225 1.905-.447 2.871-.6.138.488.184.996.314 1.485-.742.084-1.445.37-2.182.48a5.384 5.384 0 0 1-1.295.026c.004-.433-.008-.865.003-1.297.08-.065.194-.063.289-.094Zm-6.754 1.096c.356-.32.145-.849.458-1.191.776.4 1.708.166 2.523.444-.286.3-.056.713-.102 1.068-.965-.002-1.97.026-2.88-.321Zm3.668-.969c.609.112 1.191-.22 1.796-.222.003.503.001 1.007.002 1.51-.657.002-1.314.004-1.971 0-.086-.462.197-.834.173-1.288Zm7.282 1.572c1.056-.274 2.05-.759 3.012-1.29-.088.573.035 1.195.449 1.596-.973.602-1.813 1.434-2.843 1.933-.012-.655-.563-1.102-.624-1.74-.024-.167-.006-.334.006-.499Zm-3.966 1.148c1.134-.137 2.204-.537 3.263-.926-.028.36-.036.739.14 1.07.203.4.486.773.545 1.225-.994.231-1.949.629-2.976.718a2.946 2.946 0 0 1-.936-.072c.125-.67-.147-1.342-.036-2.016Zm-9.926-.016c-.052-.127-.044-.27-.026-.405.12.352.329.645.45.998.063.167.03.354-.027.514-.068-.403-.264-.739-.397-1.107Zm1.374.099c.553.532.843 1.283 1.071 2.017-.43-.117-.883-.17-1.286-.376-.12-.053-.158-.191-.205-.304.066.06.13.122.194.185.138-.04.3-.056.397-.18.158-.475-.461-.89-.171-1.342Zm5.047.363c.959.086 1.922-.078 2.839-.363.048.778-.18 1.605.142 2.344-.848.289-1.754.13-2.63.157-.086-.718-.257-1.422-.351-2.138Zm-3.976.142c.363-.023.665.234 1.034.18-.019.488.362.87.457 1.332-.345-.046-.71-.06-1.01-.242.04-.114.109-.238.045-.357-.122-.33-.412-.579-.526-.913Zm1.988.1c.46-.122.996-.193 1.4.148.46.422.52 1.142.588 1.762-.46.021-.926-.007-1.366-.177-.124-.614-.456-1.136-.622-1.733Z"/>
  <path fill="#0D0D0D" d="M20.387 19.5c.788-.377 1.599-.76 2.471-.845-1.408.526-2.712 1.3-4.066 1.954-1.75.85-3.64 1.564-5.598 1.476-.723-.089-1.442.067-2.166.06-1.39-.018-2.797.162-4.174-.121-.57-.129-1.164-.357-1.535-.852-.193-.237-.293-.536-.35-.837.5.877 1.456 1.297 2.371 1.514 1.138.252 2.313.336 3.473.23 1.555-.07 3.13-.055 4.654-.438 1.738-.44 3.316-1.345 4.92-2.142Z"/>
  <path fill="#0D0D0D" d="M21.914 19.651c.78-.398 1.544-.926 2.436-.996-.969.675-2.024 1.207-3.085 1.707-4.176 1.918-8.756 2.826-13.317 2.83-.908.006-1.833-.033-2.706-.316-.692-.225-1.34-.675-1.705-1.335-.01-.279-.118-.588-.012-.851l.143-.085c.007.339.002.679.003 1.018.393.41.89.7 1.413.895.803.305 1.658.428 2.507.492 1.334.083 2.672-.002 4-.148 3.595-.39 7.099-1.532 10.323-3.21Z"/>
  <path fill="#0D0D0D" d="M8.945 20.77c.995.021 1.991-.039 2.985.045.656.003 1.364-.458 1.984.26-1.083-.116-2.165.096-3.248.101-.574-.038-1.165-.002-1.721-.406Z"/>
</svg>
